<?xml version="1.0" encoding="UTF-8"?>
<svg version="1.1" xmlns="http://www.w3.org/2000/svg" width="514" height="514">
<path d="M0 0 C1.8870298 0.03177551 3.77420152 0.05594216 5.66142273 0.07289124 C10.58904914 0.13729299 15.50792323 0.30373619 20.43212891 0.49285889 C25.47242798 0.66793158 30.51416667 0.74464774 35.55664062 0.83007812 C45.42047803 1.01148211 55.27786629 1.30091982 65.13671875 1.66015625 C64.19802397 3.08415297 63.25716924 4.506726 62.31542969 5.92871094 C61.79172791 6.7210614 61.26802612 7.51341187 60.72845459 8.32977295 C58.44951239 11.66626178 55.94644548 14.78719577 53.38671875 17.91015625 C52.32973431 19.21534079 51.27376087 20.52134466 50.21875 21.828125 C49.69877441 22.47185059 49.17879883 23.11557617 48.64306641 23.77880859 C46.41365887 26.56321937 44.23964664 29.38836528 42.07421875 32.22265625 C38.70920779 36.62248845 35.31485155 40.99680297 31.88671875 45.34765625 C27.68074937 50.68755857 23.49582505 56.04336309 19.32421875 61.41015625 C18.44431274 62.54215454 18.44431274 62.54215454 17.54663086 63.69702148 C15.74306194 66.01786075 13.93982655 68.33895872 12.13671875 70.66015625 C5.21557476 79.56996317 -1.70868758 88.47667391 -8.68701172 97.34179688 C-14.77990324 105.08793575 -20.81750386 112.87723636 -26.86328125 120.66015625 C-33.78442524 129.56996317 -40.70868758 138.47667391 -47.68701172 147.34179688 C-53.77990324 155.08793575 -59.81750386 162.87723636 -65.86328125 170.66015625 C-72.78442524 179.56996317 -79.70868758 188.47667391 -86.68701172 197.34179688 C-92.17590177 204.32004431 -97.61819798 211.33454785 -103.06494141 218.34570312 C-106.57675018 222.86538099 -110.09162869 227.38267182 -113.60595703 231.90039062 C-116.56126165 235.6997137 -119.5157718 239.49964963 -122.46875 243.30078125 C-128.18412981 250.65622658 -133.9095829 258.0030701 -139.67163086 265.32202148 C-144.64156836 271.63986213 -149.57202751 277.98837362 -154.50390625 284.3359375 C-155.04105759 284.99661224 -155.57820892 285.65728699 -156.13163757 286.33798218 C-157.91011609 288.58109423 -157.91011609 288.58109423 -159.0448761 291.02029419 C-160.70358551 293.97192837 -162.10828646 295.65645824 -164.86328125 297.66015625 C-171.28674982 298.95331317 -177.61563464 298.70866366 -184.140625 298.5390625 C-186.03631055 298.52226285 -187.93203535 298.50945808 -189.82777405 298.50047302 C-194.80186073 298.46621454 -199.77355758 298.37790373 -204.7467041 298.27813721 C-209.82755199 298.18583754 -214.9087886 298.14491586 -219.99023438 298.09960938 C-229.94896301 298.00327338 -239.90592292 297.84980156 -249.86328125 297.66015625 C-248.0273595 293.79270307 -245.59332662 290.61035131 -242.92578125 287.28515625 C-241.92698939 286.02741835 -240.92829414 284.76960372 -239.9296875 283.51171875 C-239.41937988 282.87137695 -238.90907227 282.23103516 -238.38330078 281.57128906 C-236.02944609 278.61176858 -233.69686071 275.63566975 -231.36328125 272.66015625 C-230.44672977 271.49339909 -229.53006275 270.32673268 -228.61328125 269.16015625 C-227.93265625 268.29390625 -227.93265625 268.29390625 -227.23828125 267.41015625 C-218.52994792 256.32682292 -209.82161458 245.24348958 -201.11328125 234.16015625 C-200.65928955 233.58233398 -200.20529785 233.00451172 -199.73754883 232.40917969 C-198.8233811 231.24572302 -197.90915609 230.08231136 -196.99487305 228.91894531 C-194.66449425 225.95353726 -192.3352001 222.98728768 -190.0078125 220.01953125 C-189.30253418 219.12113525 -189.30253418 219.12113525 -188.58300781 218.20458984 C-187.65500895 217.02124639 -186.72854033 215.83670107 -185.80371094 214.65087891 C-183.69808676 211.957977 -181.56742523 209.31029843 -179.359375 206.69921875 C-178.61816406 205.82007813 -177.87695312 204.9409375 -177.11328125 204.03515625 C-176.4584375 203.27976562 -175.80359375 202.524375 -175.12890625 201.74609375 C-173.64165998 199.78767135 -173.64165998 199.78767135 -174.12231445 197.74438477 C-174.93421074 195.46064224 -175.89837933 194.07830277 -177.453125 192.2265625 C-177.98534668 191.58404541 -178.51756836 190.94152832 -179.06591797 190.27954102 C-179.63842285 189.60076904 -180.21092773 188.92199707 -180.80078125 188.22265625 C-181.9909544 186.78629121 -183.17974024 185.34877561 -184.3671875 183.91015625 C-185.25494873 182.83701172 -185.25494873 182.83701172 -186.16064453 181.7421875 C-188.58141333 178.78200449 -190.9197324 175.76321136 -193.23828125 172.72265625 C-194.0271875 171.68882812 -194.81609375 170.655 -195.62890625 169.58984375 C-196.36625 168.62304688 -197.10359375 167.65625 -197.86328125 166.66015625 C-200.19025308 163.65518184 -202.52511002 160.65642203 -204.86328125 157.66015625 C-202.85662911 153.28783433 -200.58339653 149.90422927 -197.42578125 146.28515625 C-193.43428309 141.6300114 -189.69418088 136.84182646 -186.05078125 131.91015625 C-181.79207863 126.16687656 -177.42757912 120.52776557 -172.92578125 114.97265625 C-172.39428467 114.31362305 -171.86278809 113.65458984 -171.31518555 112.97558594 C-168.33697131 109.32532811 -165.25679837 105.92868194 -161.86328125 102.66015625 C-160.44054737 104.48938553 -159.01783542 106.31863182 -157.59521484 108.14794922 C-156.34590007 109.75402336 -155.09621904 111.35981266 -153.84619141 112.96533203 C-150.5412501 117.21123486 -147.24242271 121.46160308 -143.95703125 125.72265625 C-143.02141357 126.93332764 -143.02141357 126.93332764 -142.06689453 128.16845703 C-140.87029515 129.71716656 -139.67586986 131.26755894 -138.48388672 132.81982422 C-135.78035989 136.3139676 -133.10616922 139.6387338 -129.86328125 142.66015625 C-123.69278575 134.99474689 -117.55460579 127.31230133 -111.57568359 119.49609375 C-108.61746 115.63152579 -105.62531431 111.79541187 -102.61328125 107.97265625 C-98.40731187 102.63275393 -94.22238755 97.27694941 -90.05078125 91.91015625 C-89.46417725 91.15549072 -88.87757324 90.4008252 -88.27319336 89.62329102 C-86.46962444 87.30245175 -84.66638905 84.98135378 -82.86328125 82.66015625 C-75.94438787 73.75324661 -69.0232686 64.84870738 -62.04614258 55.98730469 C-57.69321203 50.45428157 -53.37508627 44.89437256 -49.05688477 39.33422852 C-46.37477468 35.88254927 -43.68992627 32.4333493 -40.984375 29 C-40.56514676 28.46667336 -40.14591852 27.93334673 -39.7139864 27.38385868 C-38.83219759 26.26933309 -37.94394797 25.15985253 -37.04607677 24.05824184 C-34.52116228 20.92617075 -32.27186903 17.76484163 -30.18684387 14.32228088 C-21.85524441 1.12926574 -15.11231157 -0.7550537 0 0 Z " fill="#000000" transform="translate(387.86328125,158.33984375)"/>
<path d="M0 0 C1.8971213 0.01492963 3.79427354 0.02631325 5.69143677 0.03430176 C10.67352154 0.06477939 15.65372645 0.14330361 20.6350708 0.23193359 C25.72260101 0.31392016 30.81043643 0.35034052 35.8984375 0.390625 C45.87321969 0.47630294 55.8466095 0.61275625 65.8203125 0.78125 C64.06268325 4.4533959 61.89073674 7.43808161 59.3828125 10.65625 C58.94251709 11.22287354 58.50222168 11.78949707 58.04858398 12.37329102 C56.64320534 14.17914433 55.23244966 15.98067814 53.8203125 17.78125 C53.36914062 18.35762207 52.91796875 18.93399414 52.453125 19.52783203 C49.71204196 23.02845651 46.96330578 26.52299618 44.21142578 30.01513672 C41.91157013 32.93496048 39.61615305 35.85826893 37.3203125 38.78125 C36.4036674 39.94793361 35.48700073 41.11460027 34.5703125 42.28125 C33.8896875 43.1475 33.8896875 43.1475 33.1953125 44.03125 C25.6328125 53.65625 25.6328125 53.65625 18.0703125 63.28125 C17.38932495 64.1479834 17.38932495 64.1479834 16.69458008 65.03222656 C15.78041235 66.19568323 14.86618734 67.35909489 13.9519043 68.52246094 C11.6215255 71.48786899 9.29223135 74.45411857 6.96484375 77.421875 C6.4946582 78.02080566 6.02447266 78.61973633 5.54003906 79.23681641 C4.6120402 80.42015986 3.68557158 81.60470518 2.76074219 82.79052734 C0.65511801 85.48342925 -1.47554352 88.13110782 -3.68359375 90.7421875 C-4.42480469 91.62132812 -5.16601562 92.50046875 -5.9296875 93.40625 C-6.58453125 94.16164063 -7.239375 94.91703125 -7.9140625 95.6953125 C-9.40130877 97.6537349 -9.40130877 97.6537349 -8.9206543 99.69702148 C-8.10875801 101.98076401 -7.14458942 103.36310348 -5.58984375 105.21484375 C-4.79151123 106.17861938 -4.79151123 106.17861938 -3.97705078 107.16186523 C-3.11829346 108.18002319 -3.11829346 108.18002319 -2.2421875 109.21875 C-1.05201435 110.65511504 0.13677149 112.09263064 1.32421875 113.53125 C1.91605957 114.24667969 2.50790039 114.96210938 3.11767578 115.69921875 C5.53844458 118.65940176 7.87676365 121.67819489 10.1953125 124.71875 C10.98421875 125.75257813 11.773125 126.78640625 12.5859375 127.8515625 C13.32328125 128.81835938 14.060625 129.78515625 14.8203125 130.78125 C17.14728433 133.78622441 19.48214127 136.78498422 21.8203125 139.78125 C17.70140722 146.5520532 12.79626573 152.59506871 7.77490234 158.70092773 C3.75822851 163.5949307 -0.07774909 168.59040414 -3.83984375 173.68359375 C-7.222912 178.16234687 -10.74741252 182.52451298 -14.28344727 186.88305664 C-16.98971677 190.15926035 -16.98971677 190.15926035 -19.1796875 193.78125 C-20.1696875 193.78125 -21.1596875 193.78125 -22.1796875 193.78125 C-24.1207699 191.46956971 -25.87376905 189.17357301 -27.6171875 186.71875 C-28.68923709 185.24711529 -29.76351572 183.77710218 -30.83984375 182.30859375 C-31.39043457 181.55562012 -31.94102539 180.80264648 -32.50830078 180.02685547 C-35.10297733 176.54075631 -37.82143687 173.15911487 -40.5546875 169.78125 C-44.53263911 164.85214643 -48.42855365 159.88695997 -52.1796875 154.78125 C-55.81702657 158.28891566 -59.03132671 161.96409156 -62.1171875 165.96875 C-62.58318359 166.56751953 -63.04917969 167.16628906 -63.52929688 167.78320312 C-64.5430145 169.08655436 -65.55516371 170.39112667 -66.56591797 171.69677734 C-68.83595287 174.62893437 -71.11378912 177.55500238 -73.39086914 180.48168945 C-74.58972543 182.02284237 -75.78812575 183.56435008 -76.98608398 185.10620117 C-80.97211105 190.23560439 -84.97741671 195.34928591 -88.99609375 200.453125 C-92.74224482 205.21499633 -96.46272961 209.99656987 -100.1796875 214.78125 C-104.76701999 220.68632595 -109.37025918 226.57817783 -113.99609375 232.453125 C-117.74224482 237.21499633 -121.46272961 241.99656987 -125.1796875 246.78125 C-129.33183264 252.12612797 -133.49281613 257.46352699 -137.6796875 262.78125 C-141.96601592 268.2275405 -146.23404222 273.68789501 -150.4921875 279.15625 C-151.06710938 279.89359375 -151.64203125 280.6309375 -152.234375 281.390625 C-152.78996094 282.10476563 -153.34554687 282.81890625 -153.91796875 283.5546875 C-154.64560425 284.48933838 -154.64560425 284.48933838 -155.38793945 285.44287109 C-157.20870904 287.62035887 -157.20870904 287.62035887 -158.04455566 289.79852295 C-159.48201331 292.56948764 -160.60447947 293.97433039 -163.1796875 295.78125 C-169.56531875 296.9480569 -175.89047818 296.71153017 -182.359375 296.5625 C-184.2564963 296.54757037 -186.15364854 296.53618675 -188.05081177 296.52819824 C-193.03289654 296.49772061 -198.01310145 296.41919639 -202.9944458 296.33056641 C-208.08197601 296.24857984 -213.16981143 296.21215948 -218.2578125 296.171875 C-228.23259469 296.08619706 -238.2059845 295.94974375 -248.1796875 295.78125 C-247.24099272 294.35725328 -246.30013799 292.93468025 -245.35839844 291.51269531 C-244.83469666 290.72034485 -244.31099487 289.92799438 -243.77142334 289.1116333 C-241.49248114 285.77514447 -238.98941423 282.65421048 -236.4296875 279.53125 C-235.37270306 278.22606546 -234.31672962 276.92006159 -233.26171875 275.61328125 C-232.48175537 274.64769287 -232.48175537 274.64769287 -231.68603516 273.66259766 C-229.45662762 270.87818688 -227.28261539 268.05304097 -225.1171875 265.21875 C-221.75217654 260.8189178 -218.3578203 256.44460328 -214.9296875 252.09375 C-210.72371812 246.75384768 -206.5387938 241.39804316 -202.3671875 236.03125 C-201.7805835 235.27658447 -201.19397949 234.52191895 -200.58959961 233.74438477 C-198.78603069 231.4235455 -196.9827953 229.10244753 -195.1796875 226.78125 C-188.25854351 217.87144308 -181.33428117 208.96473234 -174.35595703 200.09960938 C-168.26306551 192.3534705 -162.22546489 184.56416989 -156.1796875 176.78125 C-149.25854351 167.87144308 -142.33428117 158.96473234 -135.35595703 150.09960938 C-129.26306551 142.3534705 -123.22546489 134.56416989 -117.1796875 126.78125 C-110.25854351 117.87144308 -103.33428117 108.96473234 -96.35595703 100.09960938 C-90.86706698 93.12136194 -85.42477077 86.1068584 -79.97802734 79.09570312 C-76.46621857 74.57602526 -72.95134006 70.05873443 -69.43701172 65.54101562 C-66.4817071 61.74169255 -63.52719695 57.94175662 -60.57421875 54.140625 C-55.29146905 47.34195583 -50.00503652 40.5466269 -44.6796875 33.78125 C-40.39343213 28.33490159 -36.12533317 22.87460549 -31.8671875 17.40625 C-31.00480469 16.30023438 -31.00480469 16.30023438 -30.125 15.171875 C-29.56941406 14.45773438 -29.01382813 13.74359375 -28.44140625 13.0078125 C-27.95631592 12.38471191 -27.47122559 11.76161133 -26.97143555 11.11962891 C-25.15066596 8.94214113 -25.15066596 8.94214113 -24.31481934 6.76397705 C-19.57253136 -2.37765752 -8.88586785 -0.20471224 0 0 Z " fill="#000000" transform="translate(309.1796875,59.21875)"/>
<path d="M0 0 C10.90925333 -0.27880315 21.81765132 -0.49163544 32.72974968 -0.62174606 C37.79768104 -0.6842157 42.86316491 -0.76884145 47.9296875 -0.90527344 C52.82528583 -1.03626827 57.71854068 -1.1075301 62.61575699 -1.13852692 C64.47789527 -1.16059525 66.33991391 -1.20369618 68.20104599 -1.26876068 C83.53825877 -1.78331226 83.53825877 -1.78331226 88.33403015 2.625 C90.94586475 5.50567864 92.98659101 8.67588327 95 12 C95.92973016 13.21310445 96.87501301 14.41477345 97.84765625 15.59375 C98.99204397 17.09538044 100.13604887 18.59731447 101.27441406 20.10351562 C101.68530273 20.64685547 102.09619141 21.19019531 102.51953125 21.75 C102.92381348 22.28496094 103.3280957 22.81992188 103.74462891 23.37109375 C105.03368643 25.04370982 106.36081037 26.67918808 107.69921875 28.3125 C108.12775146 28.84810547 108.55628418 29.38371094 108.99780273 29.93554688 C110.18071462 31.41343717 111.37896912 32.87900926 112.578125 34.34375 C114 37 114 37 113.578125 39.40625 C111.48341973 42.84903292 109.06984666 45.9015152 106.5 49 C105.41040399 50.33638064 104.32187993 51.67363591 103.234375 53.01171875 C102.41743164 54.01404541 102.41743164 54.01404541 101.58398438 55.03662109 C99.25505997 57.9233674 96.99827684 60.86277141 94.75 63.8125 C91.82287627 67.64794157 88.85296349 71.440902 85.8125 75.1875 C82.43847877 79.35540858 79.40322056 83.69280614 76.4453125 88.1640625 C75.96835938 88.76992187 75.49140625 89.37578125 75 90 C74.34 90 73.68 90 73 90 C73 90.66 73 91.32 73 92 C68.85469595 90.45141261 67.02564213 87.74633698 64.4375 84.25 C63.55029752 83.0657927 62.66224739 81.88222008 61.7734375 80.69921875 C61.31678711 80.08739746 60.86013672 79.47557617 60.38964844 78.84521484 C58.15843401 75.88254466 55.86110351 72.97299742 53.5625 70.0625 C52.63664344 68.88677805 51.7108626 67.71099647 50.78515625 66.53515625 C50.32512207 65.95137207 49.86508789 65.36758789 49.39111328 64.76611328 C47.09125763 61.84628952 44.79584055 58.92298107 42.5 56 C41.5833549 54.83331639 40.66668823 53.66664973 39.75 52.5 C23.25 31.5 23.25 31.5 21.87329102 29.74780273 C20.96234975 28.58843767 20.05137999 27.42909499 19.14038086 26.26977539 C16.76087385 23.24158315 14.38195531 20.2129311 12.00390625 17.18359375 C11.51148437 16.55646484 11.0190625 15.92933594 10.51171875 15.28320312 C9.57533586 14.09064001 8.63912577 12.89794118 7.703125 11.70507812 C5.72425479 9.1851573 3.73599471 6.68346078 1.68359375 4.22265625 C0 2 0 2 0 0 Z " fill="#000000" transform="translate(62,160)"/>
<path d="M0 0 C4.14530405 1.54858739 5.97435787 4.25366302 8.5625 7.75 C9.44970248 8.9342073 10.33775261 10.11777992 11.2265625 11.30078125 C11.68321289 11.91260254 12.13986328 12.52442383 12.61035156 13.15478516 C14.84156599 16.11745534 17.13889649 19.02700258 19.4375 21.9375 C20.36335656 23.11322195 21.2891374 24.28900353 22.21484375 25.46484375 C22.90489502 26.34052002 22.90489502 26.34052002 23.60888672 27.23388672 C25.90874237 30.15371048 28.20415945 33.07701893 30.5 36 C31.4166451 37.16668361 32.33331177 38.33335027 33.25 39.5 C49.75 60.5 49.75 60.5 51.12670898 62.25219727 C52.03765025 63.41156233 52.94862001 64.57090501 53.85961914 65.73022461 C56.23912615 68.75841685 58.61804469 71.7870689 60.99609375 74.81640625 C61.48851562 75.44353516 61.9809375 76.07066406 62.48828125 76.71679688 C63.42466414 77.90935999 64.36087423 79.10205882 65.296875 80.29492188 C67.27574521 82.8148427 69.26400529 85.31653922 71.31640625 87.77734375 C73 90 73 90 73 92 C62.09074667 92.27880315 51.18234868 92.49163544 40.27025032 92.62174606 C35.20231896 92.6842157 30.13683509 92.76884145 25.0703125 92.90527344 C20.17471417 93.03626827 15.28145932 93.1075301 10.38424301 93.13852692 C8.52210473 93.16059525 6.66008609 93.20369618 4.79895401 93.26876068 C-10.53825877 93.78331226 -10.53825877 93.78331226 -15.33403015 89.375 C-17.94586475 86.49432136 -19.98659101 83.32411673 -22 80 C-22.92973016 78.78689555 -23.87501301 77.58522655 -24.84765625 76.40625 C-25.99204397 74.90461956 -27.13604887 73.40268553 -28.27441406 71.89648438 C-28.68530273 71.35314453 -29.09619141 70.80980469 -29.51953125 70.25 C-30.12595459 69.44755859 -30.12595459 69.44755859 -30.74462891 68.62890625 C-32.03368643 66.95629018 -33.36081037 65.32081192 -34.69921875 63.6875 C-35.12775146 63.15189453 -35.55628418 62.61628906 -35.99780273 62.06445312 C-37.18071462 60.58656283 -38.37896912 59.12099074 -39.578125 57.65625 C-41 55 -41 55 -40.45703125 52.4453125 C-38.9389917 49.89761074 -37.32900346 47.66008903 -35.4375 45.375 C-34.36048828 44.06015625 -34.36048828 44.06015625 -33.26171875 42.71875 C-32.14216797 41.37296875 -32.14216797 41.37296875 -31 40 C-24.7692986 32.50928663 -18.83706841 24.85123724 -13.01953125 17.0390625 C-8.74757886 11.30728514 -4.37529323 5.65303373 0 0 Z " fill="#000000" transform="translate(379,263)"/>
<path d="" fill="#000000" transform="translate(0,0)"/>
</svg>
